<?xml version="1.0" standalone="no"?>
<!DOCTYPE svg PUBLIC "-//W3C//DTD SVG 20010904//EN"
 "http://www.w3.org/TR/2001/REC-SVG-20010904/DTD/svg10.dtd">
<svg version="1.0" xmlns="http://www.w3.org/2000/svg"
 width="920.000000pt" height="512.000000pt" viewBox="0 0 920.000000 512.000000"
 preserveAspectRatio="xMidYMid meet">

<g transform="translate(0.000000,512.000000) scale(0.100000,-0.100000)"
fill="#000000" stroke="none">
<path d="M2520 2560 l0 -1920 2080 0 2080 0 0 73 0 74 -802 6 c-442 4 -1342 7
-2000 7 l-1198 0 0 1840 0 1840 -80 0 -80 0 0 -1920z"/>
<path d="M4050 4458 c-33 -17 -51 -35 -67 -68 l-23 -44 0 -1613 0 -1613 400 0
400 0 0 1613 0 1613 -22 44 c-17 33 -35 51 -68 68 -43 21 -54 22 -310 22 -256
0 -267 -1 -310 -22z"/>
<path d="M3090 3498 c-30 -15 -53 -37 -67 -63 l-23 -40 0 -1137 0 -1138 400 0
400 0 0 1133 0 1133 -22 44 c-17 33 -35 51 -68 68 -43 21 -54 22 -310 22 -256
0 -267 -1 -310 -22z"/>
<path d="M5010 2538 c-33 -17 -51 -35 -67 -68 l-23 -44 0 -653 0 -653 400 0
400 0 0 653 0 653 -22 44 c-17 33 -35 51 -68 68 -43 21 -54 22 -310 22 -256 0
-267 -1 -310 -22z"/>
<path d="M5970 1578 c-33 -17 -51 -35 -67 -68 -21 -41 -23 -58 -23 -217 l0
-173 400 0 400 0 0 173 c0 159 -2 176 -22 217 -17 33 -35 51 -68 68 -43 21
-54 22 -310 22 -256 0 -267 -1 -310 -22z"/>
</g>
</svg>
