<!DOCTYPE svg PUBLIC "-//W3C//DTD SVG 1.1//EN" "http://www.w3.org/Graphics/SVG/1.1/DTD/svg11.dtd">

<svg fill="#000000" height="800px" width="800px" version="1.1" id="Capa_1" xmlns="http://www.w3.org/2000/svg" xmlns:xlink="http://www.w3.org/1999/xlink" viewBox="0 0 463.311 463.311" xml:space="preserve" stroke="#000000">

<g id="SVGRepo_bgCarrier" stroke-width="0"/>

<g id="SVGRepo_tracerCarrier" stroke-linecap="round" stroke-linejoin="round"/>

<g id="SVGRepo_iconCarrier"> <g> <path d="M442.404,448.311h-50.976v-15.368c0-35.193-9.385-62.355-27.894-80.732c-23.592-23.424-53.221-23.477-54.407-23.474 h-37.571v-22.734c0-0.396-0.04-0.783-0.099-1.163c24.057-9.94,39.261-26.522,48.519-40.897 c14.433-22.41,17.689-43.977,17.82-44.884c0.052-0.357,0.078-0.716,0.078-1.076v-1.606c5.268-1.299,9.851-4.017,13.49-8.046 c10.619-11.757,10.003-30.305,9.245-37.734c-0.577-5.654-3.135-10.399-7.398-13.722c-0.837-0.653-1.715-1.229-2.618-1.738v-31.588 c0-42.897-17.983-69.814-33.069-84.841c-16.415-16.35-32.897-22.465-33.591-22.718c-2.244-0.816-4.74-0.515-6.725,0.808 l-8.277,5.519c-30.854-26.129-61.543-22.189-62.895-22c-3.703,0.52-6.457,3.688-6.457,7.427v7.654 c-27.813-3.079-46.348,5.969-47.201,6.395c-1.81,0.905-3.177,2.503-3.792,4.431c-0.615,1.928-0.424,4.022,0.528,5.808l3.986,7.473 c1.055,4.363-1.618,7.324-11.464,16.029c-4.518,3.995-9.639,8.522-14.941,14.355c-16.233,17.856-13.756,69.113-12.609,84.46 c-1.448,0.68-2.853,1.508-4.16,2.526c-4.263,3.322-6.822,8.067-7.399,13.723c-0.757,7.429-1.373,25.978,9.245,37.734 c3.679,4.074,8.326,6.804,13.668,8.085v1.567c0,0.36,0.026,0.72,0.078,1.076c0.131,0.907,3.387,22.474,17.82,44.884 c9.258,14.375,24.462,30.956,48.519,40.897c-0.059,0.38-0.099,0.767-0.099,1.163v22.734h-37.518 c-1.221,0.018-30.869,0.051-54.46,23.474c-18.509,18.377-27.894,45.54-27.894,80.732v15.368H20.907c-4.142,0-7.5,3.358-7.5,7.5 c0,4.142,3.358,7.5,7.5,7.5h421.497c4.142,0,7.5-3.358,7.5-7.5C449.904,451.669,446.546,448.311,442.404,448.311z M252.161,129.165 c-2.374,0.695-4.253,2.516-5.022,4.868c-0.157,0.48-2.016,6.318-2.579,14.007c-10.504-2.355-19.642-1.545-26.206-0.112 c-0.573-7.633-2.413-13.416-2.57-13.895c-0.769-2.352-2.647-4.173-5.022-4.868c-12.567-3.679-25.496-5.544-38.427-5.544 c-5.576,0-10.707,0.35-15.317,0.886c1.112-1.339,1.735-3.029,1.735-4.789v-16.378c6.93-3.35,27.424-10.765,73.021-10.765 c45.597,0,66.091,7.415,73.022,10.765v16.378c0,1.794,0.645,3.519,1.799,4.869c-4.785-0.582-10.152-0.966-16.007-0.966 C277.657,123.621,264.727,125.486,252.161,129.165z M172.335,138.621c10.119,0,20.243,1.286,30.154,3.826 c1.31,6.281,2.195,16.628-2.266,23.098c-3.019,4.378-8.296,6.708-16.134,7.122c-5.92,0.313-10.188,0.453-13.837,0.453 c-19.208,0-26.085-1.461-27.837-30.54C148.171,140.934,158.693,138.621,172.335,138.621z M260.433,142.447 c9.912-2.541,20.036-3.826,30.155-3.826c13.531,0,24.124,2.329,29.92,3.974c-1.754,29.063-8.633,30.524-27.836,30.524 c-3.65,0-7.918-0.14-13.837-0.453c-7.838-0.414-13.115-2.744-16.134-7.122C258.237,159.072,259.124,148.718,260.433,142.447z M340.231,198.277c-0.721,0.798-1.508,1.456-2.358,2.008v-33.6c0.822,0.096,1.645,0.231,2.432,0.42 c0.436,0.175,0.89,0.311,1.36,0.401c0.883,0.31,1.684,0.7,2.323,1.198c0.725,0.565,1.493,1.412,1.697,3.414 C346.577,180.858,345.612,192.32,340.231,198.277z M137.792,79.978c4.752-5.227,9.547-9.466,13.778-13.207 c10.363-9.162,20.151-17.815,15.698-32.282c-0.141-0.458-0.325-0.901-0.55-1.324l-0.302-0.566 c7.909-2.216,21.749-4.538,39.215-1.108c2.202,0.432,4.479-0.144,6.21-1.567c1.731-1.425,2.735-3.55,2.735-5.792v-9.053 c2.899,0.147,6.635,0.553,10.93,1.512c13.698,3.057,26.347,10,37.598,20.638c2.541,2.402,6.404,2.731,9.314,0.791l9.699-6.467 c5.089,2.451,15.261,8.125,25.288,18.252c18.703,18.891,28.187,43.702,28.187,73.744v7.796c-0.009-0.008-0.016-0.018-0.025-0.026 l-15.77-14.84V99.036c0-2.25-1.01-4.38-2.751-5.805c-1.959-1.602-20.992-15.655-85.271-15.655 c-64.278,0-83.311,14.053-85.27,15.655c-1.741,1.425-2.751,3.556-2.751,5.805v17.442l-15.514,14.599 C128.293,110.199,130.66,87.824,137.792,79.978z M122.902,198.277c-5.38-5.957-6.345-17.419-5.454-26.158 c0.203-1.993,0.963-2.837,1.68-3.401c1.518-1.193,3.926-1.794,6.31-2.051v33.729C124.519,199.824,123.672,199.13,122.902,198.277z M156.245,256.283c-11.735-18.011-15.267-35.842-15.808-38.914v-36.978c6.651,5.542,16.243,7.727,29.814,7.727 c3.924,0,8.436-0.146,14.629-0.473c12.651-0.668,21.983-5.262,27.735-13.65c2.19-3.194,3.629-6.686,4.544-10.231 c4.812-1.658,15.539-4.164,28.643,0.158c0.917,3.491,2.346,6.926,4.504,10.073c5.752,8.388,15.084,12.981,27.735,13.65 c6.193,0.327,10.705,0.473,14.629,0.473c0.002,0-0.001,0,0.001,0c13.83,0,23.538-2.26,30.201-8.042v37.29 c-0.548,3.107-4.083,20.921-15.808,38.915c-16.808,25.798-41.946,39.985-74.713,42.169h-1.394 C198.191,296.268,173.054,282.081,156.245,256.283z M199.255,343.738c4.142,0,7.5-3.358,7.5-7.5v-26.469 c7.174,1.836,14.973,3.118,23.473,3.668c0.161,0.01,0.323,0.016,0.485,0.016h1.886c0.162,0,0.324-0.005,0.485-0.016 c8.499-0.551,16.299-1.832,23.473-3.668v26.469c0,4.142,3.358,7.5,7.5,7.5h10.103c-2.855,20.911-20.822,37.079-42.504,37.079 c-21.682,0-39.648-16.168-42.504-37.079H199.255z M86.883,432.944c0-88.177,64.527-89.206,67.301-89.206h19.854 c2.934,29.204,27.653,52.079,57.617,52.079s54.684-22.875,57.617-52.079h19.908c0.258-0.016,24.576,0.047,43.785,19.118 c15.568,15.457,23.462,39.039,23.462,70.088v15.368h-19.38v-40.655c0-4.142-3.358-7.5-7.5-7.5h-31.524v-12.84 c0-4.142-3.358-7.5-7.5-7.5c-4.142,0-7.5,3.358-7.5,7.5v12.84h-31.524c-4.142,0-7.5,3.358-7.5,7.5v40.655H86.883V432.944z M342.048,415.157v33.155h-63.049v-33.155H342.048z"/> <circle cx="178.418" cy="155.635" r="8.951"/> <circle cx="284.893" cy="155.635" r="8.951"/> <path d="M229.722,208.363h3.868c9.925,0,18-8.075,18-18c0-4.142-3.358-7.5-7.5-7.5c-4.142,0-7.5,3.358-7.5,7.5c0,1.654-1.346,3-3,3 h-3.868c-1.654,0-3-1.346-3-3c0-4.142-3.358-7.5-7.5-7.5s-7.5,3.358-7.5,7.5C211.722,200.288,219.796,208.363,229.722,208.363z"/> <path d="M296.392,439.485h28.264c4.142,0,7.5-3.358,7.5-7.5c0-4.142-3.358-7.5-7.5-7.5h-28.264c-4.142,0-7.5,3.358-7.5,7.5 C288.892,436.127,292.25,439.485,296.392,439.485z"/> <path d="M278.15,248.375c2.601-3.225,2.095-7.946-1.129-10.546c-3.225-2.601-7.946-2.094-10.546,1.129 c-0.08,0.1-9.089,9.939-32.971,9.939c-24.809,0-36.903-10.295-37.494-10.812c-3.06-2.749-7.773-2.519-10.552,0.528 c-2.791,3.061-2.572,7.805,0.489,10.595c0.658,0.6,16.468,14.689,47.557,14.689C264.729,263.897,276.869,249.964,278.15,248.375z"/> </g> </g>

</svg>