<?xml version="1.0" encoding="utf-8"?>
<!-- Generator: Adobe Illustrator 26.4.1, SVG Export Plug-In . SVG Version: 6.00 Build 0)  -->
<svg version="1.1" id="Layer_1" xmlns="http://www.w3.org/2000/svg" xmlns:xlink="http://www.w3.org/1999/xlink" x="0px" y="0px"
	 viewBox="0 0 292 292" style="enable-background:new 0 0 292 292;" xml:space="preserve">
<style type="text/css">
	.st0{display:none;}
	.st1{display:inline;}
	.st2{display:inline;fill:none;stroke:#D85656;stroke-miterlimit:10;}
	.st3{fill:#BB86FC;}
	.st4{fill:none;stroke:#E42D2C;stroke-miterlimit:10;}
</style>
<g id="fondo" class="st0">
	<path class="st1" d="M226.7,163.8H82.9c-4.3,0-7.8,3.5-7.8,7.8v59c0,4.3,3.5,7.8,7.8,7.8h143.7c4.3,0,7.8-3.5,7.8-7.8v-59
		C234.5,167.3,231,163.8,226.7,163.8z M167.2,173.9c0-1.4,1.1-2.5,2.5-2.5h11.7c1.4,0,2.5,1.1,2.5,2.5v11.7c0,1.4-1.1,2.5-2.5,2.5
		h-11.7c-1.4,0-2.5-1.1-2.5-2.5V173.9z M167.2,195.2c0-1.4,1.1-2.5,2.5-2.5h11.7c1.4,0,2.5,1.1,2.5,2.5V207c0,1.4-1.1,2.5-2.5,2.5
		h-11.7c-1.4,0-2.5-1.1-2.5-2.5V195.2z M146.1,173.9c0-1.4,1.1-2.5,2.5-2.5h11.7c1.4,0,2.5,1.1,2.5,2.5v11.7c0,1.4-1.1,2.5-2.5,2.5
		h-11.7c-1.4,0-2.5-1.1-2.5-2.5V173.9z M146.1,195.2c0-1.4,1.1-2.5,2.5-2.5h11.7c1.4,0,2.5,1.1,2.5,2.5V207c0,1.4-1.1,2.5-2.5,2.5
		h-11.7c-1.4,0-2.5-1.1-2.5-2.5V195.2z M124.9,173.9c0-1.4,1.1-2.5,2.5-2.5h11.7c1.4,0,2.5,1.1,2.5,2.5v11.7c0,1.4-1.1,2.5-2.5,2.5
		h-11.7c-1.4,0-2.5-1.1-2.5-2.5V173.9z M124.9,195.2c0-1.4,1.1-2.5,2.5-2.5h11.7c1.4,0,2.5,1.1,2.5,2.5V207c0,1.4-1.1,2.5-2.5,2.5
		h-11.7c-1.4,0-2.5-1.1-2.5-2.5V195.2z M100.9,228.3c0,1.4-1.1,2.5-2.5,2.5H86.7c-1.4,0-2.5-1.1-2.5-2.5v-11.7
		c0-1.4,1.1-2.5,2.5-2.5h11.7c1.4,0,2.5,1.1,2.5,2.5C100.9,216.5,100.9,228.3,100.9,228.3z M205.1,228.3c0,1.4-1.1,2.5-2.5,2.5
		h-95.7c-1.4,0-2.5-1.1-2.5-2.5v-11.7c0-1.4,1.1-2.5,2.5-2.5h95.7c1.4,0,2.5,1.1,2.5,2.5V228.3z M205.1,207c0,1.4-1.1,2.5-2.5,2.5
		h-11.7c-1.4,0-2.5-1.1-2.5-2.5v-11.7c0-1.4,1.1-2.5,2.5-2.5h11.7c1.4,0,2.5,1.1,2.5,2.5V207z M205.1,185.7c0,1.4-1.1,2.5-2.5,2.5
		h-11.7c-1.4,0-2.5-1.1-2.5-2.5v-11.7c0-1.4,1.1-2.5,2.5-2.5h11.7c1.4,0,2.5,1.1,2.5,2.5V185.7z M226.3,228.3c0,1.4-1.1,2.5-2.5,2.5
		H212c-1.4,0-2.5-1.1-2.5-2.5v-11.7c0-1.4,1.1-2.5,2.5-2.5h11.7c1.4,0,2.5,1.1,2.5,2.5V228.3z M226.3,207c0,1.4-1.1,2.5-2.5,2.5H212
		c-1.4,0-2.5-1.1-2.5-2.5v-11.7c0-1.4,1.1-2.5,2.5-2.5h11.7c1.4,0,2.5,1.1,2.5,2.5V207z M226.3,185.7c0,1.4-1.1,2.5-2.5,2.5H212
		c-1.4,0-2.5-1.1-2.5-2.5v-11.7c0-1.4,1.1-2.5,2.5-2.5h11.7c1.4,0,2.5,1.1,2.5,2.5V185.7z"/>
</g>
<g id="fondo_2">
</g>
<g id="teclas">
</g>
<g id="teclas_2">
</g>
<g id="mouse" class="st0">
	<path class="st2" d="M97.4,109.6H83c-16.5,0-29.8,13.3-29.8,29.8v54.1c0,16.4,13.3,29.8,29.8,29.8h14.5c16.5,0,29.8-13.3,29.8-29.8
		v-54.1C127.2,122.9,113.9,109.6,97.4,109.6z"/>
</g>
<g id="mouse_2">
</g>
<g id="Layer_2_00000058555975175823367890000004795862701118233000_">
</g>
<g id="Layer_4" class="st0">
	
		<image style="display:inline;overflow:visible;enable-background:new    ;" width="347" height="343" xlink:href="49E98715.jpeg"  transform="matrix(0.7401 0 0 0.7401 12.5799 20.5924)">
	</image>
</g>
<g id="Layer_9">
</g>
<path class="st3" d="M266.5,131.2H127.3v11.1h11.9c2,0,3.7,1.6,3.7,3.7V163c0,2-1.6,3.7-3.7,3.7h-11.9v6.6h11.9c2,0,3.7,1.6,3.7,3.7
	v17.1c0,2-1.6,3.7-3.7,3.7h-17c0,0-0.1,0-0.1,0c-1.2,2.3-2.6,4.5-4.1,6.6h113.6c2,0,3.7,1.6,3.7,3.7v17.1c0,2-1.6,3.7-3.7,3.7H92.3
	c-2,0-3.7-1.6-3.7-3.7v-2.5c-1.6,0.3-3.3,0.5-5,0.7v1.8c0,2-1.6,3.7-3.7,3.7h-17c-2,0-3.7-1.6-3.7-3.7v-1.7h-3.1
	c-3.4,0-6.8-0.4-10-1.1v6.1c0,6.2,5.1,11.3,11.3,11.3h209c6.2,0,11.3-5.1,11.3-11.3v-85.8C277.8,136.3,272.7,131.2,266.5,131.2z
	 M173.6,193.9c0,2-1.6,3.7-3.7,3.7h-17.1c-2,0-3.7-1.6-3.7-3.7v-17.1c0-2,1.6-3.7,3.7-3.7h17.1c2,0,3.7,1.6,3.7,3.7V193.9z
	 M173.6,163c0,2-1.6,3.7-3.7,3.7h-17.1c-2,0-3.7-1.6-3.7-3.7v-17.1c0-2,1.6-3.7,3.7-3.7h17.1c2,0,3.7,1.6,3.7,3.7V163z M204.3,193.9
	c0,2-1.6,3.7-3.7,3.7h-17.1c-2,0-3.7-1.6-3.7-3.7v-17.1c0-2,1.6-3.7,3.7-3.7h17.1c2,0,3.7,1.6,3.7,3.7V193.9z M204.3,163
	c0,2-1.6,3.7-3.7,3.7h-17.1c-2,0-3.7-1.6-3.7-3.7v-17.1c0-2,1.6-3.7,3.7-3.7h17.1c2,0,3.7,1.6,3.7,3.7V163z M235.1,193.9
	c0,2-1.6,3.7-3.7,3.7h-17.1c-2,0-3.7-1.6-3.7-3.7v-17.1c0-2,1.6-3.7,3.7-3.7h17.1c2,0,3.7,1.6,3.7,3.7V193.9z M235.1,163
	c0,2-1.6,3.7-3.7,3.7h-17.1c-2,0-3.7-1.6-3.7-3.7v-17.1c0-2,1.6-3.7,3.7-3.7h17.1c2,0,3.7,1.6,3.7,3.7V163z M265.8,224.9
	c0,2-1.6,3.7-3.7,3.7h-17.1c-2,0-3.7-1.6-3.7-3.7v-17.1c0-2,1.6-3.7,3.7-3.7h17.1c2,0,3.7,1.6,3.7,3.7V224.9z M265.8,193.9
	c0,2-1.6,3.7-3.7,3.7h-17.1c-2,0-3.7-1.6-3.7-3.7v-17.1c0-2,1.6-3.7,3.7-3.7h17.1c2,0,3.7,1.6,3.7,3.7V193.9z M265.8,163
	c0,2-1.6,3.7-3.7,3.7h-17.1c-2,0-3.7-1.6-3.7-3.7v-17.1c0-2,1.6-3.7,3.7-3.7h17.1c2,0,3.7,1.6,3.7,3.7V163z"/>
<path class="st3" d="M248,147.6h11.3c0.6,0,1.2,0.5,1.2,1.2v11.3c0,0.6-0.5,1.2-1.2,1.2H248c-0.6,0-1.2-0.5-1.2-1.2v-11.3
	C246.8,148.1,247.3,147.6,248,147.6z"/>
<path class="st3" d="M248,178.6h11.3c0.6,0,1.2,0.5,1.2,1.2v11.3c0,0.6-0.5,1.2-1.2,1.2H248c-0.6,0-1.2-0.5-1.2-1.2v-11.3
	C246.8,179.1,247.3,178.6,248,178.6z"/>
<path class="st3" d="M217.2,147.6h11.3c0.6,0,1.2,0.5,1.2,1.2v11.3c0,0.6-0.5,1.2-1.2,1.2h-11.3c-0.6,0-1.2-0.5-1.2-1.2v-11.3
	C216.1,148.1,216.6,147.6,217.2,147.6z"/>
<path class="st3" d="M217.2,178.6h11.3c0.6,0,1.2,0.5,1.2,1.2v11.3c0,0.6-0.5,1.2-1.2,1.2h-11.3c-0.6,0-1.2-0.5-1.2-1.2v-11.3
	C216.1,179.1,216.6,178.6,217.2,178.6z"/>
<path class="st3" d="M186.5,147.6h11.3c0.6,0,1.2,0.5,1.2,1.2v11.3c0,0.6-0.5,1.2-1.2,1.2h-11.3c-0.6,0-1.2-0.5-1.2-1.2v-11.3
	C185.3,148.1,185.8,147.6,186.5,147.6z"/>
<path class="st3" d="M186.5,178.6h11.3c0.6,0,1.2,0.5,1.2,1.2v11.3c0,0.6-0.5,1.2-1.2,1.2h-11.3c-0.6,0-1.2-0.5-1.2-1.2v-11.3
	C185.3,179.1,185.8,178.6,186.5,178.6z"/>
<path class="st3" d="M155.7,147.6H167c0.6,0,1.2,0.5,1.2,1.2v11.3c0,0.6-0.5,1.2-1.2,1.2h-11.3c-0.6,0-1.2-0.5-1.2-1.2v-11.3
	C154.5,148.1,155.1,147.6,155.7,147.6z"/>
<path class="st3" d="M155.7,178.6H167c0.6,0,1.2,0.5,1.2,1.2v11.3c0,0.6-0.5,1.2-1.2,1.2h-11.3c-0.6,0-1.2-0.5-1.2-1.2v-11.3
	C154.5,179.1,155.1,178.6,155.7,178.6z"/>
<path class="st3" d="M135.7,147.6h-8.5v13.7h8.5c0.9,0,1.7-0.8,1.7-1.7v-10.2C137.5,148.4,136.7,147.6,135.7,147.6z"/>
<path class="st3" d="M135.7,178.6h-8.6c-0.3,4.6-1.2,9.1-2.7,13.3c0.3,0.2,0.6,0.4,1,0.4h10.2c0.9,0,1.7-0.8,1.7-1.7v-10.2
	C137.5,179.3,136.7,178.6,135.7,178.6z"/>
<path class="st3" d="M248,209.5h11.3c0.6,0,1.2,0.5,1.2,1.2V222c0,0.6-0.5,1.2-1.2,1.2H248c-0.6,0-1.2-0.5-1.2-1.2v-11.3
	C246.8,210.1,247.3,209.5,248,209.5z"/>
<path class="st3" d="M228,209.5H113.2c-5.3,5.3-11.9,9.3-19.2,11.6v0.4c0,0.9,0.8,1.7,1.7,1.7H228c0.9,0,1.7-0.8,1.7-1.7v-10.2
	C229.7,210.3,229,209.5,228,209.5z"/>
<path class="st3" d="M64.5,104l-0.8-0.2C58.1,102.2,54,97,54,90.9V77.7c0-6.2,4.2-11.4,10-12.9l0.5-0.1V52.4h-7
	c-23.9,0-43.3,19.4-43.3,43.3v20.7h50.3V104z"/>
<path class="st3" d="M78.5,52.4h-7v12.3l0.7,0.2c5.6,1.6,9.8,6.7,9.8,12.9v13.2c0,6.2-4.2,11.4-10,12.9l-0.5,0.1v12.4h50.3V95.7
	C121.8,71.8,102.4,52.4,78.5,52.4z"/>
<path class="st3" d="M14.2,174.4c0,23.9,19.4,43.3,43.3,43.3h21c23.9,0,43.3-19.4,43.3-43.3V122H14.2V174.4z"/>
<path class="st3" d="M68.7,68.6h-1.3c-5,0-9.1,4.1-9.1,9.1v13.2c0,5,4.1,9.1,9.1,9.1h1.3c5,0,9.1-4.1,9.1-9.1V77.6
	C77.8,72.6,73.7,68.6,68.7,68.6z"/>
<path class="st4" d="M63.3,65"/>
<path class="st4" d="M121.8,116.3"/>
<g id="Layer_11">
</g>
</svg>
