<?xml version="1.0" encoding="utf-8"?>
<!-- Generator: Adobe Illustrator 26.4.1, SVG Export Plug-In . SVG Version: 6.00 Build 0)  -->
<svg version="1.1" id="Layer_1" xmlns="http://www.w3.org/2000/svg" xmlns:xlink="http://www.w3.org/1999/xlink" x="0px" y="0px"
	 viewBox="0 0 292 292" style="enable-background:new 0 0 292 292;" xml:space="preserve">
<style type="text/css">
	.st0{display:none;}
	.st1{fill:#BB86FC;}
</style>
<g id="Layer_3" class="st0">
	
		<image style="display:inline;overflow:visible;enable-background:new    ;" width="351" height="377" xlink:href="2BF92B51.jpeg"  transform="matrix(0.9972 0 0 0.9972 -22.4838 -41.9787)">
	</image>
</g>
<g id="reglas">
</g>
<g id="Layer_2_00000057142418712949776500000001625903093790849195_">
	<path class="st1" d="M217.4,17.5H66.7c-11.1,0-20.2,9-20.2,20.2v216c0,11.1,9,20.2,20.2,20.2h150.6c11.1,0,20.2-9,20.2-20.2v-216
		C237.5,26.6,228.5,17.5,217.4,17.5z M222.5,250.6c0,4.7-3.8,8.5-8.5,8.5H70.1c-4.7,0-8.5-3.8-8.5-8.5V41.6c0-4.7,3.8-8.5,8.5-8.5
		H214c4.7,0,8.5,3.8,8.5,8.5L222.5,250.6L222.5,250.6z"/>
	<path class="st1" d="M68.5,39.5v212.7h147.1V39.5H68.5z M136.4,44.6h11.2c1.3,0,2.4,1.1,2.4,2.4s-1.1,2.4-2.4,2.4h-11.2
		c-1.3,0-2.4-1.1-2.4-2.4S135.1,44.6,136.4,44.6z M142,247.8c-5.5,0-9.9-4.4-9.9-9.9s4.4-9.9,9.9-9.9s9.9,4.4,9.9,9.9
		S147.5,247.8,142,247.8z"/>
	<circle class="st1" cx="142" cy="237.9" r="4.7"/>
</g>
<g id="Layer_4">
</g>
</svg>
